<svg width="222" height="41" viewBox="0 0 222 41" fill="none" xmlns="http://www.w3.org/2000/svg">
<path d="M5.18 30.99C4.57333 30.99 4.04833 30.64 3.605 29.94C3.16167 29.2633 2.84667 28.155 2.66 26.615C2.63667 26.4983 2.625 26.3583 2.625 26.195C2.625 26.0083 2.625 25.8217 2.625 25.635C2.625 24.865 2.67167 23.8967 2.765 22.73C2.85833 21.54 2.975 20.2333 3.115 18.81C3.255 17.3867 3.38333 15.9283 3.5 14.435C3.64 12.9183 3.75667 11.4367 3.85 9.99C3.94333 8.54333 3.99 7.225 3.99 6.035C3.99 4.565 3.89667 3.375 3.71 2.465C3.52333 1.555 3.185 1.1 2.695 1.1C2.39167 1.1 2.08833 1.275 1.785 1.625C1.505 1.95167 1.24833 2.325 1.015 2.745C0.805 3.14167 0.63 3.46833 0.49 3.725C0.373333 3.95833 0.303333 3.99333 0.28 3.83C0.256667 3.73667 0.233333 3.655 0.21 3.585C0.21 3.49167 0.21 3.39833 0.21 3.305C0.21 2.86167 0.315 2.395 0.525 1.905C0.735 1.415 1.02667 1.00667 1.4 0.679999C1.77333 0.329999 2.19333 0.154999 2.66 0.154999C2.75333 0.154999 2.835 0.166666 2.905 0.189999C2.975 0.189999 3.045 0.201665 3.115 0.224998C4.025 0.458332 4.64333 1.205 4.97 2.465C5.29667 3.725 5.46 5.25333 5.46 7.05C5.46 8.40333 5.39 9.83833 5.25 11.355C5.13333 12.8717 4.99333 14.4 4.83 15.94C4.69 17.4567 4.55 18.9033 4.41 20.28C4.29333 21.6567 4.235 22.87 4.235 23.92C4.235 24.2233 4.235 24.515 4.235 24.795C4.25833 25.0517 4.28167 25.2967 4.305 25.53C4.49167 27 4.74833 28.0267 5.075 28.61C5.40167 29.2167 5.775 29.52 6.195 29.52C6.66167 29.52 7.14 29.2633 7.63 28.75C8.14333 28.2367 8.645 27.595 9.135 26.825C9.625 26.055 10.0683 25.285 10.465 24.515C11.0017 23.5117 11.4917 22.3333 11.935 20.98C12.3783 19.6267 12.775 18.25 13.125 16.85C13.4983 15.45 13.79 14.1667 14 13C13.7667 12.6033 13.6267 12.195 13.58 11.775C13.5333 11.355 13.51 10.8183 13.51 10.165C13.51 9.465 13.6383 8.91667 13.895 8.52C14.1517 8.12333 14.42 7.925 14.7 7.925C15.12 7.925 15.4 8.275 15.54 8.975C15.7967 10.1417 16.0533 11.3783 16.31 12.685C16.5667 13.9683 16.8467 15.2283 17.15 16.465C17.4767 17.7017 17.85 18.845 18.27 19.895C19.1333 21.9717 19.9267 23.465 20.65 24.375C21.3733 25.2617 22.0383 25.705 22.645 25.705C23.275 25.705 23.8233 25.3083 24.29 24.515C24.78 23.6983 25.1883 22.6367 25.515 21.33C25.8417 20 26.0867 18.565 26.25 17.025C26.4133 15.4617 26.495 13.9333 26.495 12.44C26.495 11.2033 26.4367 10.0483 26.32 8.975C26.2267 7.90166 26.0517 7.02667 25.795 6.35C25.7017 6.07 25.6317 5.77833 25.585 5.475C25.5383 5.17167 25.515 4.89167 25.515 4.635C25.515 4.30833 25.55 4.02833 25.62 3.795C25.7133 3.56167 25.8417 3.445 26.005 3.445C26.1917 3.445 26.3783 3.585 26.565 3.865C26.8217 4.19167 27.055 4.64667 27.265 5.23C27.4983 5.79 27.6967 6.28 27.86 6.7C28.0467 7.16667 28.2917 7.73833 28.595 8.415C28.8983 9.06833 29.2133 9.675 29.54 10.235C29.89 10.7717 30.2283 11.0983 30.555 11.215C30.6017 11.2383 30.625 11.285 30.625 11.355C30.625 11.495 30.52 11.6117 30.31 11.705C30.1 11.7983 29.9483 11.8333 29.855 11.81C29.3183 11.5533 28.8633 11.285 28.49 11.005C28.14 10.7017 27.7317 10.1533 27.265 9.36C27.2883 9.78 27.3 10.2117 27.3 10.655C27.3 11.075 27.3 11.495 27.3 11.915C27.3 13.1283 27.2533 14.3417 27.16 15.555C27.09 16.7683 26.9383 17.9933 26.705 19.23C26.1917 21.9133 25.5383 23.8267 24.745 24.97C23.975 26.1133 23.1583 26.685 22.295 26.685C21.595 26.685 20.895 26.3817 20.195 25.775C19.5183 25.145 18.8883 24.3167 18.305 23.29C17.7217 22.2633 17.22 21.12 16.8 19.86C16.4267 18.6467 16.1117 17.5383 15.855 16.535C15.5983 15.5083 15.4 14.61 15.26 13.84C14.8867 15.52 14.3967 17.1883 13.79 18.845C13.2067 20.5017 12.5533 22.065 11.83 23.535C11.1067 24.9817 10.3483 26.265 9.555 27.385C8.785 28.505 8.015 29.38 7.245 30.01C6.49833 30.6633 5.81 30.99 5.18 30.99ZM33.0291 33.125C32.4924 33.125 32.0841 32.9033 31.8041 32.46C31.5474 32.0167 31.4191 31.5033 31.4191 30.92C31.4191 30.22 31.5474 29.415 31.8041 28.505C32.0841 27.6183 32.4224 26.7083 32.8191 25.775C33.2157 24.8183 33.6241 23.8967 34.0441 23.01C34.4874 22.1233 34.8724 21.33 35.1991 20.63C35.5491 19.93 35.7824 19.3933 35.8991 19.02C36.0391 18.6 36.1091 18.285 36.1091 18.075C36.1091 17.8417 36.0274 17.725 35.8641 17.725C35.6774 17.725 35.3974 17.8767 35.0241 18.18C34.6741 18.46 34.3241 18.775 33.9741 19.125C33.6474 19.475 33.4141 19.7317 33.2741 19.895C32.5274 20.735 31.8507 21.6683 31.2441 22.695C30.6607 23.7217 30.2991 24.5967 30.1591 25.32C30.1357 25.4367 30.0891 25.6467 30.0191 25.95C29.9724 26.2533 29.8674 26.3933 29.7041 26.37C29.4707 26.3233 29.3074 26.1833 29.2141 25.95C29.1441 25.6933 29.0974 25.46 29.0741 25.25C29.0741 25.1333 29.0624 25.0167 29.0391 24.9C29.0391 24.76 29.0391 24.62 29.0391 24.48C29.0391 23.3367 29.1674 22.0417 29.4241 20.595C29.6807 19.1483 30.0074 17.6667 30.4041 16.15C30.8241 14.6333 31.2674 13.2217 31.7341 11.915C32.2007 10.6083 32.6441 9.52333 33.0641 8.66C33.2741 8.24 33.5074 7.84333 33.7641 7.47C34.0207 7.07333 34.2774 6.875 34.5341 6.875C34.6974 6.875 34.8374 6.95667 34.9541 7.12C35.0941 7.28333 35.1641 7.42333 35.1641 7.54C35.1641 7.63333 35.0007 8.00667 34.6741 8.66C34.3707 9.29 33.9741 10.13 33.4841 11.18C32.9941 12.2067 32.4924 13.385 31.9791 14.715C31.4891 16.045 31.0457 17.4683 30.6491 18.985C30.2524 20.5017 29.9841 22.0417 29.8441 23.605C29.8441 23.6283 29.8324 23.745 29.8091 23.955C29.7857 24.165 29.7624 24.375 29.7391 24.585C29.7391 24.795 29.7391 24.9 29.7391 24.9V24.865H29.7741C29.8207 24.585 29.9024 24.3167 30.0191 24.06C30.1591 23.8033 30.2991 23.5583 30.4391 23.325C31.1391 21.925 32.0374 20.5833 33.1341 19.3C33.6707 18.6933 34.2307 18.1683 34.8141 17.725C35.3974 17.2583 36.0041 17.025 36.6341 17.025C36.8907 17.025 37.1124 17.095 37.2991 17.235C37.4857 17.375 37.5791 17.6433 37.5791 18.04C37.5791 18.5533 37.4041 19.16 37.0541 19.86C36.7274 20.5367 36.3191 21.2483 35.8291 21.995C35.3624 22.7183 34.9307 23.4067 34.5341 24.06C33.9974 24.97 33.5074 25.9383 33.0641 26.965C32.6441 27.9683 32.4341 29.0183 32.4341 30.115C32.4341 30.4417 32.4574 30.7917 32.5041 31.165C32.5741 31.5383 32.6791 31.8533 32.8191 32.11C32.9824 32.39 33.2041 32.53 33.4841 32.53C33.6707 32.53 33.8457 32.4717 34.0091 32.355C34.1957 32.2617 34.3474 32.1683 34.4641 32.075C34.6741 31.865 34.8141 31.76 34.8841 31.76C34.9541 31.76 34.9891 31.795 34.9891 31.865C34.9891 32.005 34.9307 32.1333 34.8141 32.25C34.6974 32.39 34.5807 32.495 34.4641 32.565C34.3007 32.705 34.0791 32.8333 33.7991 32.95C33.5424 33.0667 33.2857 33.125 33.0291 33.125ZM40.3922 27.455C39.5522 27.455 38.8172 26.965 38.1872 25.985C37.5805 24.9817 37.2772 23.4067 37.2772 21.26C37.2772 19.86 37.4522 18.74 37.8022 17.9C38.1522 17.0367 38.5839 16.4067 39.0972 16.01C39.6105 15.6133 40.1005 15.415 40.5672 15.415C41.0339 15.415 41.4305 15.5783 41.7572 15.905C42.0839 16.2083 42.2472 16.6517 42.2472 17.235C42.2472 17.795 42.0839 18.39 41.7572 19.02C41.4305 19.6267 41.0339 20.1867 40.5672 20.7C40.1239 21.19 39.6805 21.5167 39.2372 21.68C39.1439 21.7267 39.0272 21.75 38.8872 21.75C38.7939 21.75 38.7472 21.715 38.7472 21.645C38.7472 21.4583 38.9339 21.2483 39.3072 21.015C39.7739 20.6883 40.2172 20.1983 40.6372 19.545C41.0572 18.8683 41.2672 18.2733 41.2672 17.76C41.2672 17.4567 41.1972 17.2233 41.0572 17.06C40.9172 16.8733 40.7539 16.78 40.5672 16.78C40.2172 16.78 39.8322 17.06 39.4122 17.62C39.0155 18.1567 38.7239 19.09 38.5372 20.42C38.4905 20.7933 38.4439 21.155 38.3972 21.505C38.3739 21.8317 38.3622 22.1583 38.3622 22.485C38.3622 23.7917 38.5605 24.8183 38.9572 25.565C39.3539 26.2883 39.8789 26.65 40.5322 26.65C41.0922 26.65 41.7222 26.3233 42.4222 25.67C43.1222 24.9933 43.8105 23.9433 44.4872 22.52C44.6505 22.1467 44.8372 21.96 45.0472 21.96C45.1872 21.96 45.2572 22.0533 45.2572 22.24C45.2572 22.4033 45.2105 22.5783 45.1172 22.765C44.5105 24.2583 43.7755 25.4133 42.9122 26.23C42.0489 27.0467 41.2089 27.455 40.3922 27.455ZM48.8707 28.75C48.124 28.75 47.5523 28.4 47.1557 27.7C46.759 27.0233 46.5607 26.2767 46.5607 25.46C46.5607 24.69 46.689 23.885 46.9457 23.045C47.2023 22.205 47.5173 21.3767 47.8907 20.56C48.2873 19.7433 48.6957 18.9967 49.1157 18.32C48.6957 18.4833 48.299 18.565 47.9257 18.565C47.739 18.565 47.5757 18.5417 47.4357 18.495C47.2957 18.4483 47.179 18.4133 47.0857 18.39C46.969 18.67 46.759 19.1367 46.4557 19.79C46.1757 20.4433 45.8723 21.1317 45.5457 21.855C45.2423 22.555 44.974 23.15 44.7407 23.64C44.3673 24.4333 44.0407 24.83 43.7607 24.83C43.6207 24.83 43.5507 24.7367 43.5507 24.55C43.5507 24.41 43.609 24.2233 43.7257 23.99C44.2623 22.9867 44.764 21.995 45.2307 21.015C45.7207 20.035 46.164 19.09 46.5607 18.18C46.514 18.0633 46.4673 17.9117 46.4207 17.725C46.374 17.515 46.3507 17.2933 46.3507 17.06C46.3507 16.8033 46.374 16.535 46.4207 16.255C46.4907 15.9517 46.584 15.66 46.7007 15.38C46.7707 15.2167 46.899 14.9833 47.0857 14.68C47.2723 14.3533 47.4823 14.0617 47.7157 13.805C47.949 13.525 48.1707 13.385 48.3807 13.385C48.7773 13.385 48.9757 13.595 48.9757 14.015C48.9757 14.4117 48.8473 14.8667 48.5907 15.38C48.3573 15.8933 48.1123 16.3717 47.8557 16.815C47.599 17.235 47.4707 17.55 47.4707 17.76C47.4707 17.9467 47.564 18.04 47.7507 18.04C48.0073 18.04 48.3223 17.9117 48.6957 17.655C49.0923 17.375 49.4073 17.1183 49.6407 16.885C49.7573 16.7683 49.944 16.5933 50.2007 16.36C50.4573 16.1033 50.7023 15.975 50.9357 15.975C51.169 15.975 51.3207 16.045 51.3907 16.185C51.484 16.325 51.5307 16.4883 51.5307 16.675C51.5307 16.885 51.4373 17.1533 51.2507 17.48C51.064 17.7833 50.8423 18.0867 50.5857 18.39C50.3523 18.6933 50.154 18.95 49.9907 19.16C49.664 19.65 49.2907 20.2683 48.8707 21.015C48.4507 21.7617 48.089 22.5667 47.7857 23.43C47.4823 24.27 47.3307 25.075 47.3307 25.845C47.3307 26.3583 47.459 26.895 47.7157 27.455C47.9723 28.015 48.3223 28.295 48.7657 28.295C49.1623 28.295 49.5823 28.085 50.0257 27.665C50.4923 27.245 50.924 26.7433 51.3207 26.16C51.7407 25.5767 52.1023 25.0167 52.4057 24.48C52.7323 23.9433 52.954 23.57 53.0707 23.36C53.1173 23.2433 53.199 23.1033 53.3157 22.94C53.4323 22.7533 53.5723 22.66 53.7357 22.66C53.8757 22.66 53.9457 22.73 53.9457 22.87C53.9457 22.9867 53.9107 23.1267 53.8407 23.29C53.794 23.43 53.7473 23.5583 53.7007 23.675C53.4907 24.165 53.234 24.6783 52.9307 25.215C52.6273 25.7517 52.4173 26.1133 52.3007 26.3C51.974 26.8367 51.484 27.3733 50.8307 27.91C50.2007 28.47 49.5473 28.75 48.8707 28.75ZM56.3199 27.455C55.4799 27.455 54.7449 26.965 54.1149 25.985C53.5083 24.9817 53.2049 23.4067 53.2049 21.26C53.2049 19.86 53.3799 18.74 53.7299 17.9C54.0799 17.0367 54.5116 16.4067 55.0249 16.01C55.5383 15.6133 56.0283 15.415 56.4949 15.415C56.9616 15.415 57.3583 15.5783 57.6849 15.905C58.0116 16.2083 58.1749 16.6517 58.1749 17.235C58.1749 17.795 58.0116 18.39 57.6849 19.02C57.3583 19.6267 56.9616 20.1867 56.4949 20.7C56.0516 21.19 55.6083 21.5167 55.1649 21.68C55.0716 21.7267 54.9549 21.75 54.8149 21.75C54.7216 21.75 54.6749 21.715 54.6749 21.645C54.6749 21.4583 54.8616 21.2483 55.2349 21.015C55.7016 20.6883 56.1449 20.1983 56.5649 19.545C56.9849 18.8683 57.1949 18.2733 57.1949 17.76C57.1949 17.4567 57.1249 17.2233 56.9849 17.06C56.8449 16.8733 56.6816 16.78 56.4949 16.78C56.1449 16.78 55.7599 17.06 55.3399 17.62C54.9433 18.1567 54.6516 19.09 54.4649 20.42C54.4183 20.7933 54.3716 21.155 54.3249 21.505C54.3016 21.8317 54.2899 22.1583 54.2899 22.485C54.2899 23.7917 54.4883 24.8183 54.8849 25.565C55.2816 26.2883 55.8066 26.65 56.4599 26.65C57.0199 26.65 57.6499 26.3233 58.3499 25.67C59.0499 24.9933 59.7383 23.9433 60.4149 22.52C60.5783 22.1467 60.7649 21.96 60.9749 21.96C61.1149 21.96 61.1849 22.0533 61.1849 22.24C61.1849 22.4033 61.1383 22.5783 61.0449 22.765C60.4383 24.2583 59.7033 25.4133 58.8399 26.23C57.9766 27.0467 57.1366 27.455 56.3199 27.455ZM89.9114 36.66C88.4414 36.66 87.0998 36.1467 85.8864 35.12C84.6731 34.1167 83.5764 32.9033 82.5964 31.48C82.3864 31.7133 82.1764 31.9467 81.9664 32.18C81.7564 32.4133 81.5464 32.6233 81.3364 32.81C79.8431 34.1633 78.2914 34.84 76.6814 34.84C75.4214 34.84 74.2548 34.3383 73.1814 33.335C72.1314 32.3317 71.3614 30.7683 70.8714 28.645C70.6614 27.7583 70.5214 26.8833 70.4514 26.02C70.3814 25.1333 70.3581 24.235 70.3814 23.325C69.5648 23.4183 68.8881 23.1383 68.3514 22.485C67.8381 21.8317 67.5814 20.91 67.5814 19.72C67.5814 18.53 67.8848 17.13 68.4914 15.52C69.1214 13.91 70.1714 12.1833 71.6414 10.34C72.4114 9.38333 73.1581 8.52 73.8814 7.75C74.6048 6.95667 75.3164 6.23333 76.0164 5.58C76.8098 4.27333 77.6264 3.14167 78.4664 2.185C79.3064 1.22833 80.0064 0.679998 80.5664 0.539999C80.6831 0.516665 80.7764 0.504999 80.8464 0.504999C80.9164 0.481666 80.9748 0.469999 81.0214 0.469999C81.2314 0.469999 81.3364 0.528333 81.3364 0.644999C81.3364 0.738333 81.2781 0.843333 81.1614 0.959999C81.0681 1.05333 80.9631 1.12333 80.8464 1.17C80.6831 1.21666 80.4498 1.40333 80.1464 1.73C79.8431 2.05667 79.5514 2.395 79.2714 2.745C78.9914 3.095 78.7814 3.35167 78.6414 3.515C79.7614 2.745 80.7998 2.185 81.7564 1.835C82.7131 1.485 83.5881 1.31 84.3814 1.31C85.5248 1.31 86.5048 1.60167 87.3214 2.185C88.1614 2.745 88.8498 3.49166 89.3864 4.425C89.9464 5.35833 90.3548 6.385 90.6114 7.505C90.8914 8.60167 91.0314 9.675 91.0314 10.725C91.0314 12.335 90.8214 14.015 90.4014 15.765C90.0048 17.515 89.4564 19.2533 88.7564 20.98C88.0798 22.6833 87.3098 24.305 86.4464 25.845C85.6064 27.385 84.7431 28.75 83.8564 29.94C84.5798 30.8267 85.2798 31.6433 85.9564 32.39C86.6564 33.1367 87.2864 33.72 87.8464 34.14C88.2898 34.4433 88.7914 34.7467 89.3514 35.05C89.9348 35.3533 90.5064 35.505 91.0664 35.505C91.8131 35.505 92.3264 35.2133 92.6064 34.63C92.8864 34.0467 93.0264 33.4283 93.0264 32.775C93.0264 32.005 92.8981 31.2467 92.6414 30.5C92.4081 29.7767 92.0931 29.0883 91.6964 28.435C91.6264 28.3183 91.5914 28.2367 91.5914 28.19C91.5914 28.1433 91.6148 28.12 91.6614 28.12C91.8014 28.12 91.9414 28.2133 92.0814 28.4C92.5481 28.96 92.9214 29.6133 93.2014 30.36C93.4814 31.1067 93.6214 31.8533 93.6214 32.6C93.6214 33.7433 93.2948 34.7 92.6414 35.47C91.9881 36.2633 91.0781 36.66 89.9114 36.66ZM77.4164 33.895C78.5364 33.895 79.6914 33.37 80.8814 32.32C81.1148 32.11 81.3364 31.8883 81.5464 31.655C81.7798 31.4217 82.0131 31.1767 82.2464 30.92C81.3131 29.45 80.4964 27.9333 79.7964 26.37C79.1198 24.8067 78.5481 23.4883 78.0814 22.415C77.7314 21.645 77.5564 21.0733 77.5564 20.7C77.5564 20.5367 77.6381 20.5483 77.8014 20.735C77.9648 20.9217 78.2448 21.3883 78.6414 22.135C79.1081 23.045 79.7731 24.165 80.6364 25.495C81.4998 26.8017 82.4214 28.085 83.4014 29.345C84.2648 28.1083 85.0698 26.72 85.8164 25.18C86.5864 23.64 87.2514 22.065 87.8114 20.455C88.3948 18.8217 88.8381 17.2583 89.1414 15.765C89.4448 14.2483 89.5731 12.895 89.5264 11.705C89.4331 8.71833 88.8381 6.40833 87.7414 4.775C86.6681 3.14167 85.2681 2.325 83.5414 2.325C82.5614 2.325 81.4881 2.605 80.3214 3.165C79.1781 3.70166 77.9648 4.55333 76.6814 5.72C75.2581 7.68 74.1031 10.025 73.2164 12.755C72.3531 15.485 71.8748 18.4483 71.7814 21.645C71.8514 21.6683 71.9214 21.68 71.9914 21.68C72.0848 21.68 72.1781 21.68 72.2714 21.68H72.6564C73.0064 21.68 73.1348 21.7267 73.0414 21.82C72.6214 22.17 72.2248 22.4267 71.8514 22.59V24.655C71.8514 25.075 71.8631 25.5067 71.8864 25.95C71.9331 26.37 72.0031 26.8017 72.0964 27.245C72.5631 29.2283 73.2514 30.8267 74.1614 32.04C75.0948 33.2767 76.1798 33.895 77.4164 33.895ZM70.3814 22.1C70.6381 19.6033 71.1398 17.1417 71.8864 14.715C72.6564 12.265 73.5431 9.99 74.5464 7.89C74.1498 8.35667 73.7414 8.85833 73.3214 9.395C72.9248 9.90833 72.5281 10.445 72.1314 11.005C71.5481 11.8217 70.9764 12.685 70.4164 13.595C69.8798 14.505 69.4364 15.415 69.0864 16.325C68.7364 17.235 68.5614 18.11 68.5614 18.95C68.5614 19.65 68.7131 20.2917 69.0164 20.875C69.1798 21.1783 69.3781 21.435 69.6114 21.645C69.8681 21.8317 70.1248 21.9833 70.3814 22.1ZM94.517 26.72C94.2136 26.72 93.957 26.5683 93.747 26.265C93.5603 25.9617 93.4786 25.4717 93.502 24.795C93.502 24.4683 93.5953 23.9317 93.782 23.185C93.9686 22.415 94.167 21.5633 94.377 20.63C94.6103 19.6967 94.8086 18.7867 94.972 17.9C95.1586 17.0133 95.252 16.29 95.252 15.73C95.252 15.4733 95.2286 15.2633 95.182 15.1C95.1353 14.9133 95.0186 14.82 94.832 14.82C94.692 14.82 94.5636 14.89 94.447 15.03C94.3303 15.1467 94.2136 15.2633 94.097 15.38C93.9336 15.59 93.8403 15.695 93.817 15.695C93.7936 15.695 93.782 15.66 93.782 15.59C93.782 15.31 93.887 15.0067 94.097 14.68C94.3303 14.33 94.5986 14.155 94.902 14.155C95.2753 14.155 95.5436 14.3417 95.707 14.715C95.8703 15.065 95.952 15.5667 95.952 16.22C95.952 16.9433 95.8703 17.76 95.707 18.67C95.5436 19.58 95.3686 20.4317 95.182 21.225C95.0886 21.5983 95.007 22.0533 94.937 22.59C94.867 23.1267 94.832 23.6517 94.832 24.165C94.832 24.6083 94.867 24.9817 94.937 25.285C95.0303 25.565 95.1936 25.705 95.427 25.705C95.6136 25.705 95.8353 25.6 96.092 25.39C96.372 25.1567 96.6986 24.7717 97.072 24.235C97.6086 23.4883 98.087 22.6367 98.507 21.68C98.9503 20.7 99.3586 19.8133 99.732 19.02C99.872 18.6933 100.047 18.53 100.257 18.53C100.794 18.53 101.062 18.8217 101.062 19.405C101.062 19.8483 100.992 20.4083 100.852 21.085C100.735 21.7383 100.677 22.3683 100.677 22.975C100.677 24.0717 100.887 24.62 101.307 24.62C101.517 24.62 101.727 24.4917 101.937 24.235C102.17 23.955 102.299 23.7917 102.322 23.745C102.462 23.5817 102.59 23.5 102.707 23.5C102.847 23.5 102.917 23.5817 102.917 23.745C102.917 24.0483 102.742 24.375 102.392 24.725C102.042 25.075 101.669 25.25 101.272 25.25C100.899 25.25 100.595 25.1217 100.362 24.865C100.152 24.585 99.9536 24.2233 99.767 23.78C99.557 23.2433 99.452 22.7767 99.452 22.38C99.452 21.9833 99.4286 21.5983 99.382 21.225C99.2186 21.785 98.9386 22.38 98.542 23.01C98.1686 23.64 97.737 24.2467 97.247 24.83C96.7803 25.39 96.302 25.845 95.812 26.195C95.322 26.545 94.8903 26.72 94.517 26.72ZM103.888 26.72C103.468 26.72 103.165 26.545 102.978 26.195C102.791 25.8217 102.698 25.39 102.698 24.9C102.698 24.27 102.803 23.535 103.013 22.695C103.246 21.855 103.55 20.9917 103.923 20.105C104.296 19.195 104.716 18.3667 105.183 17.62C105.673 16.85 106.186 16.2317 106.723 15.765C107.26 15.275 107.785 15.03 108.298 15.03C108.765 15.03 109.161 15.24 109.488 15.66C109.838 16.0567 110.013 16.5117 110.013 17.025C110.013 17.3283 109.966 17.585 109.873 17.795C109.78 17.9817 109.675 18.075 109.558 18.075C109.465 18.075 109.383 18.005 109.313 17.865C109.08 17.3283 108.823 16.9433 108.543 16.71C108.286 16.4767 108.018 16.36 107.738 16.36C107.271 16.36 106.805 16.6283 106.338 17.165C105.895 17.6783 105.533 18.2733 105.253 18.95C105.02 19.4633 104.798 20.0817 104.588 20.805C104.401 21.505 104.238 22.205 104.098 22.905C103.981 23.5817 103.923 24.1417 103.923 24.585C103.923 25.3783 104.11 25.775 104.483 25.775C104.95 25.775 105.545 25.2617 106.268 24.235C106.805 23.4883 107.283 22.625 107.703 21.645C108.146 20.665 108.52 19.8133 108.823 19.09C108.94 18.8567 109.068 18.705 109.208 18.635C109.348 18.565 109.476 18.53 109.593 18.53C109.873 18.53 110.048 18.6467 110.118 18.88C110.211 19.1133 110.258 19.3117 110.258 19.475C110.258 20.0817 110.2 20.63 110.083 21.12C109.966 21.5867 109.908 22.1583 109.908 22.835C109.908 23.325 109.943 23.78 110.013 24.2C110.106 24.5967 110.258 24.795 110.468 24.795C110.725 24.795 111.051 24.4683 111.448 23.815C111.541 23.6283 111.681 23.535 111.868 23.535C112.078 23.535 112.183 23.64 112.183 23.85C112.183 24.1533 111.973 24.48 111.553 24.83C111.133 25.1567 110.713 25.32 110.293 25.32C109.733 25.32 109.336 25.0867 109.103 24.62C108.706 23.85 108.508 23.1617 108.508 22.555C108.508 21.925 108.496 21.4933 108.473 21.26C108.356 21.54 108.135 21.9833 107.808 22.59C107.481 23.1733 107.096 23.7917 106.653 24.445C106.21 25.075 105.743 25.6117 105.253 26.055C104.763 26.4983 104.308 26.72 103.888 26.72ZM117.212 32.565C116.909 32.565 116.617 32.4483 116.337 32.215C116.081 31.9817 115.859 31.7483 115.672 31.515C114.926 30.6517 114.296 29.5083 113.782 28.085C113.292 26.6617 112.919 25.0983 112.662 23.395C112.406 21.6683 112.277 19.9183 112.277 18.145C112.277 16.4883 112.382 14.8783 112.592 13.315C112.826 11.7517 113.176 10.3283 113.642 9.045C114.109 7.76167 114.692 6.735 115.392 5.965C116.302 4.93833 117.177 4.425 118.017 4.425C118.531 4.425 118.939 4.65833 119.242 5.125C119.569 5.56833 119.732 6.28 119.732 7.26C119.732 8.19333 119.546 9.38333 119.172 10.83C118.822 12.2533 118.216 13.9567 117.352 15.94C117.049 16.5933 116.722 17.2467 116.372 17.9C116.046 18.5533 115.696 19.2417 115.322 19.965C115.182 20.245 115.066 20.385 114.972 20.385C114.926 20.385 114.902 20.3383 114.902 20.245C114.902 20.0583 114.984 19.8133 115.147 19.51C117.271 15.52 118.332 11.5533 118.332 7.61C118.332 6.04667 118.006 5.265 117.352 5.265C116.886 5.265 116.337 5.72 115.707 6.63C114.844 7.91333 114.249 9.44167 113.922 11.215C113.596 12.965 113.432 14.7383 113.432 16.535C113.432 17.8883 113.491 19.2067 113.607 20.49C113.724 21.75 113.864 22.8933 114.027 23.92C114.097 24.3633 114.202 24.9583 114.342 25.705C114.482 26.4517 114.669 27.2333 114.902 28.05C115.136 28.89 115.392 29.6483 115.672 30.325C115.976 31.025 116.302 31.5267 116.652 31.83C116.746 31.9 116.839 31.97 116.932 32.04C117.049 32.1333 117.177 32.1917 117.317 32.215C117.527 32.215 117.632 32.2733 117.632 32.39C117.632 32.5067 117.492 32.565 117.212 32.565ZM121.411 15.31C121.201 15.31 121.05 15.205 120.956 14.995C120.886 14.7617 120.851 14.5983 120.851 14.505C120.851 14.1317 120.956 13.7817 121.166 13.455C121.4 13.105 121.656 12.9183 121.936 12.895H122.041C122.321 12.895 122.508 12.965 122.601 13.105C122.718 13.2217 122.776 13.3733 122.776 13.56C122.776 13.91 122.625 14.295 122.321 14.715C122.018 15.1117 121.715 15.31 121.411 15.31ZM119.626 27.84C118.833 27.84 118.296 27.5367 118.016 26.93C117.736 26.3233 117.596 25.6233 117.596 24.83C117.596 24.0367 117.678 23.2083 117.841 22.345C118.028 21.4583 118.226 20.6533 118.436 19.93C118.67 19.2067 118.845 18.6933 118.961 18.39C119.218 17.8533 119.475 17.3983 119.731 17.025C119.988 16.6283 120.268 16.43 120.571 16.43C120.781 16.43 120.933 16.5117 121.026 16.675C121.143 16.815 121.201 17.0017 121.201 17.235C121.201 17.7017 121.073 18.18 120.816 18.67C120.56 19.1367 120.326 19.58 120.116 20C119.65 20.9567 119.276 21.8083 118.996 22.555C118.74 23.3017 118.611 24.235 118.611 25.355C118.611 26.0783 118.681 26.6033 118.821 26.93C118.985 27.2567 119.206 27.42 119.486 27.42C119.86 27.42 120.291 27.21 120.781 26.79C121.271 26.3467 121.773 25.7633 122.286 25.04C122.8 24.3167 123.255 23.535 123.651 22.695C123.908 22.1583 124.106 21.89 124.246 21.89C124.34 21.89 124.386 21.9833 124.386 22.17C124.386 22.4267 124.281 22.8 124.071 23.29C123.885 23.7567 123.651 24.235 123.371 24.725C123.115 25.215 122.87 25.6 122.636 25.88C122.24 26.3933 121.785 26.8483 121.271 27.245C120.758 27.6417 120.21 27.84 119.626 27.84ZM126.523 32.6C126.29 32.6 126.045 32.4483 125.788 32.145C125.555 31.865 125.333 31.4683 125.123 30.955C124.773 30.115 124.528 29.2283 124.388 28.295C124.248 27.385 124.178 26.4633 124.178 25.53C124.178 24.5033 124.248 23.5 124.388 22.52C124.528 21.54 124.68 20.6533 124.843 19.86C124.96 19.3 125.1 18.705 125.263 18.075C125.427 17.445 125.578 16.9433 125.718 16.57C125.578 16.5933 125.357 16.675 125.053 16.815C124.75 16.955 124.435 17.095 124.108 17.235C123.805 17.375 123.537 17.445 123.303 17.445C122.953 17.445 122.778 17.2467 122.778 16.85C122.778 16.64 122.848 16.4533 122.988 16.29C123.152 16.1267 123.35 15.9983 123.583 15.905C124.05 15.695 124.563 15.5433 125.123 15.45C125.683 15.3333 126.057 15.2167 126.243 15.1L127.153 12.79C127.247 12.5567 127.41 12.1833 127.643 11.67C127.9 11.1333 128.192 10.5617 128.518 9.955C128.868 9.34833 129.207 8.8 129.533 8.31C129.79 7.93667 130.035 7.645 130.268 7.435C130.502 7.20167 130.758 7.085 131.038 7.085C131.458 7.085 131.668 7.24833 131.668 7.575C131.668 7.76167 131.587 8.04167 131.423 8.415C131.283 8.78833 131.015 9.27833 130.618 9.885C130.175 10.585 129.72 11.285 129.253 11.985C128.81 12.6617 128.425 13.3733 128.098 14.12C128.075 14.2133 128.017 14.365 127.923 14.575C127.853 14.7617 127.795 14.8783 127.748 14.925L128.448 14.82C128.635 14.7967 128.845 14.785 129.078 14.785C129.312 14.7617 129.568 14.75 129.848 14.75C130.245 14.75 130.618 14.7733 130.968 14.82C131.342 14.8433 131.645 14.9017 131.878 14.995C131.995 15.0417 132.1 15.1 132.193 15.17C132.31 15.2167 132.368 15.2633 132.368 15.31C132.368 15.4033 132.065 15.45 131.458 15.45C131.108 15.45 130.607 15.5083 129.953 15.625C129.323 15.7417 128.6 15.9283 127.783 16.185C127.387 16.3017 127.118 16.465 126.978 16.675C126.838 16.885 126.652 17.3867 126.418 18.18C126.068 19.44 125.788 20.6533 125.578 21.82C125.368 22.9633 125.205 24.13 125.088 25.32C125.065 25.5533 125.042 25.7983 125.018 26.055C125.018 26.3117 125.018 26.5917 125.018 26.895C125.018 27.6883 125.088 28.5167 125.228 29.38C125.392 30.2433 125.625 30.99 125.928 31.62C125.998 31.76 126.068 31.8883 126.138 32.005C126.232 32.1217 126.337 32.2033 126.453 32.25C126.617 32.32 126.698 32.4017 126.698 32.495C126.698 32.565 126.64 32.6 126.523 32.6ZM129.672 40.755C128.762 40.755 128.027 40.51 127.467 40.02C126.907 39.5533 126.627 38.9233 126.627 38.13C126.627 37.43 126.826 36.73 127.222 36.03C127.596 35.3533 128.062 34.7 128.622 34.07C129.206 33.4633 129.789 32.9267 130.372 32.46C131.399 31.6433 132.612 30.8733 134.012 30.15C135.436 29.4267 137.034 28.8783 138.807 28.505C138.831 28.2483 138.842 27.98 138.842 27.7C138.842 27.4433 138.842 27.1867 138.842 26.93C138.842 25.04 138.714 23.325 138.457 21.785C138.201 20.2217 137.909 18.88 137.582 17.76C136.649 20.07 135.821 21.995 135.097 23.535C134.374 25.0517 133.977 26.3233 133.907 27.35C133.884 27.5133 133.779 27.6883 133.592 27.875C133.429 28.085 133.242 28.19 133.032 28.19C132.892 28.19 132.752 28.1083 132.612 27.945C132.496 27.805 132.414 27.5483 132.367 27.175C132.367 27.0817 132.356 26.9533 132.332 26.79C132.332 26.6267 132.332 26.335 132.332 25.915C132.332 25.495 132.332 24.865 132.332 24.025C132.332 23.2783 132.309 22.52 132.262 21.75C132.239 20.9567 132.157 20.2217 132.017 19.545C131.877 18.8683 131.667 18.32 131.387 17.9C131.131 17.48 130.769 17.27 130.302 17.27C129.929 17.27 129.579 17.41 129.252 17.69C128.949 17.97 128.692 18.25 128.482 18.53C128.272 18.7867 128.109 18.915 127.992 18.915C127.899 18.915 127.852 18.88 127.852 18.81C127.852 18.7633 127.887 18.6933 127.957 18.6C128.004 18.4833 128.051 18.39 128.097 18.32C128.307 18.0167 128.576 17.7133 128.902 17.41C129.252 17.1067 129.614 16.85 129.987 16.64C130.384 16.4067 130.734 16.29 131.037 16.29C131.667 16.29 132.157 16.6167 132.507 17.27C132.857 17.9 133.102 18.705 133.242 19.685C133.406 20.665 133.487 21.6683 133.487 22.695C133.487 23.1383 133.464 23.675 133.417 24.305C133.371 24.935 133.312 25.4717 133.242 25.915C133.709 25.0517 134.304 23.85 135.027 22.31C135.751 20.77 136.544 19.0317 137.407 17.095L137.092 16.185V16.08C137.092 15.8467 137.162 15.6717 137.302 15.555C137.466 15.4383 137.629 15.38 137.792 15.38C137.932 15.38 138.072 15.415 138.212 15.485C138.352 15.555 138.446 15.66 138.492 15.8C138.772 16.43 139.006 17.2933 139.192 18.39C139.402 19.4867 139.554 20.6767 139.647 21.96C139.764 23.22 139.822 24.4683 139.822 25.705C139.822 26.6383 139.787 27.5133 139.717 28.33C140.301 28.2133 140.919 28.12 141.572 28.05C142.249 27.98 142.832 27.945 143.322 27.945C143.626 27.945 143.777 27.9917 143.777 28.085C143.777 28.2717 143.532 28.3883 143.042 28.435C142.482 28.4817 141.911 28.54 141.327 28.61C140.767 28.7033 140.196 28.82 139.612 28.96C139.122 31.6433 138.352 33.79 137.302 35.4C136.276 37.0333 135.214 38.2583 134.117 39.075C133.324 39.6583 132.542 40.0783 131.772 40.335C131.026 40.615 130.326 40.755 129.672 40.755ZM129.392 40.02C129.789 40.02 130.244 39.9383 130.757 39.775C131.294 39.6117 131.854 39.355 132.437 39.005C134.304 37.9083 135.751 36.52 136.777 34.84C137.804 33.1833 138.457 31.2933 138.737 29.17C137.361 29.5433 135.972 30.08 134.572 30.78C133.196 31.5033 131.936 32.3433 130.792 33.3C130.279 33.7433 129.766 34.245 129.252 34.805C128.762 35.365 128.354 35.9367 128.027 36.52C127.701 37.1267 127.537 37.71 127.537 38.27C127.537 38.8067 127.701 39.2267 128.027 39.53C128.354 39.8567 128.809 40.02 129.392 40.02ZM173.223 33.685C172.57 33.685 172.022 33.405 171.578 32.845C171.135 32.3083 170.808 31.6433 170.598 30.85C170.388 30.0567 170.283 29.2983 170.283 28.575C170.283 27.175 170.482 25.6233 170.878 23.92C171.275 22.2167 171.765 20.4783 172.348 18.705C172.955 16.9317 173.573 15.2283 174.203 13.595C174.857 11.9383 175.44 10.445 175.953 9.115C176.467 7.785 176.828 6.72333 177.038 5.93C177.085 5.72 177.12 5.53333 177.143 5.37C177.167 5.18333 177.178 5.03167 177.178 4.915C177.178 4.495 177.05 4.285 176.793 4.285C176.42 4.285 175.86 4.67 175.113 5.44C174.367 6.18666 173.527 7.21333 172.593 8.52C171.683 9.80333 170.773 11.2617 169.863 12.895C168.953 14.5283 168.137 16.22 167.413 17.97C166.713 19.6967 166.223 21.3883 165.943 23.045C165.85 23.6517 165.687 24.1067 165.453 24.41C165.243 24.7133 165.033 24.865 164.823 24.865C164.637 24.865 164.473 24.7483 164.333 24.515C164.193 24.2817 164.123 23.9433 164.123 23.5C164.1 21.6333 164.042 19.7667 163.948 17.9C163.855 16.01 163.645 14.2017 163.318 12.475C162.828 9.815 162.268 7.925 161.638 6.805C161.032 5.685 160.402 5.125 159.748 5.125C159.142 5.125 158.547 5.49833 157.963 6.245C157.403 6.96833 156.867 7.93667 156.353 9.15C155.84 10.34 155.385 11.6467 154.988 13.07C154.592 14.4933 154.277 15.905 154.043 17.305C153.833 18.705 153.728 19.9533 153.728 21.05C153.728 21.3067 153.728 21.5633 153.728 21.82C153.752 22.0533 153.775 22.275 153.798 22.485C153.822 22.6017 153.833 22.73 153.833 22.87C153.833 22.9867 153.833 23.1033 153.833 23.22C153.833 23.7567 153.763 24.235 153.623 24.655C153.483 25.075 153.32 25.285 153.133 25.285C152.947 25.285 152.772 25.075 152.608 24.655C152.422 24.235 152.27 23.71 152.153 23.08C152.037 22.4267 151.943 21.8783 151.873 21.435C151.827 21.1083 151.722 20.6183 151.558 19.965C151.418 19.3117 151.243 18.6 151.033 17.83C150.823 17.0367 150.578 16.2667 150.298 15.52C150.042 14.75 149.762 14.0967 149.458 13.56C149.155 13 148.84 12.6383 148.513 12.475C148.467 12.4283 148.443 12.3817 148.443 12.335C148.443 12.2183 148.56 12.1483 148.793 12.125C149.05 12.1017 149.225 12.1133 149.318 12.16C149.808 12.3 150.24 12.65 150.613 13.21C151.01 13.7467 151.348 14.3883 151.628 15.135C151.932 15.8583 152.188 16.5817 152.398 17.305C152.608 18.005 152.783 18.5883 152.923 19.055C153.18 17.445 153.483 15.8583 153.833 14.295C154.207 12.7083 154.697 11.1567 155.303 9.64C156.167 7.54 157.018 6.04667 157.858 5.16C158.698 4.25 159.492 3.795 160.238 3.795C161.032 3.795 161.743 4.20333 162.373 5.02C163.027 5.81333 163.575 6.875 164.018 8.205C164.485 9.51167 164.8 10.935 164.963 12.475C165.057 13.2683 165.115 14.1317 165.138 15.065C165.162 15.975 165.173 16.8733 165.173 17.76V20.49C165.173 20.8867 165.173 21.2483 165.173 21.575C165.173 21.9017 165.185 22.17 165.208 22.38C165.372 21.82 165.64 21.0383 166.013 20.035C166.387 19.0083 166.842 17.865 167.378 16.605C167.915 15.3217 168.522 14.0033 169.198 12.65C169.875 11.2967 170.598 10.0017 171.368 8.765C172.162 7.505 172.978 6.40833 173.818 5.475C174.682 4.51833 175.545 3.81833 176.408 3.375C176.922 3.11833 177.4 2.99 177.843 2.99C178.357 2.99 178.788 3.14167 179.138 3.445C179.488 3.725 179.663 4.145 179.663 4.705C179.663 5.545 179.488 6.385 179.138 7.225C178.788 8.04167 178.368 8.84667 177.878 9.64C177.388 10.4333 176.933 11.2033 176.513 11.95C175.767 13.3033 175.02 14.8667 174.273 16.64C173.527 18.4133 172.897 20.245 172.383 22.135C171.893 24.025 171.648 25.845 171.648 27.595C171.648 28.155 171.672 28.7033 171.718 29.24C171.788 29.7767 171.893 30.29 172.033 30.78C172.243 31.5267 172.5 32.04 172.803 32.32C173.13 32.6233 173.457 32.775 173.783 32.775C174.133 32.775 174.46 32.67 174.763 32.46C175.067 32.2733 175.312 32.0633 175.498 31.83C175.685 31.62 175.767 31.4917 175.743 31.445C175.953 31.375 176.035 31.4333 175.988 31.62C175.942 31.83 175.848 32.04 175.708 32.25C175.568 32.4833 175.475 32.6233 175.428 32.67C174.612 33.3467 173.877 33.685 173.223 33.685ZM178.707 26.72C178.287 26.72 177.984 26.545 177.797 26.195C177.611 25.8217 177.517 25.39 177.517 24.9C177.517 24.27 177.622 23.535 177.832 22.695C178.066 21.855 178.369 20.9917 178.742 20.105C179.116 19.195 179.536 18.3667 180.002 17.62C180.492 16.85 181.006 16.2317 181.542 15.765C182.079 15.275 182.604 15.03 183.117 15.03C183.584 15.03 183.981 15.24 184.307 15.66C184.657 16.0567 184.832 16.5117 184.832 17.025C184.832 17.3283 184.786 17.585 184.692 17.795C184.599 17.9817 184.494 18.075 184.377 18.075C184.284 18.075 184.202 18.005 184.132 17.865C183.899 17.3283 183.642 16.9433 183.362 16.71C183.106 16.4767 182.837 16.36 182.557 16.36C182.091 16.36 181.624 16.6283 181.157 17.165C180.714 17.6783 180.352 18.2733 180.072 18.95C179.839 19.4633 179.617 20.0817 179.407 20.805C179.221 21.505 179.057 22.205 178.917 22.905C178.801 23.5817 178.742 24.1417 178.742 24.585C178.742 25.3783 178.929 25.775 179.302 25.775C179.769 25.775 180.364 25.2617 181.087 24.235C181.624 23.4883 182.102 22.625 182.522 21.645C182.966 20.665 183.339 19.8133 183.642 19.09C183.759 18.8567 183.887 18.705 184.027 18.635C184.167 18.565 184.296 18.53 184.412 18.53C184.692 18.53 184.867 18.6467 184.937 18.88C185.031 19.1133 185.077 19.3117 185.077 19.475C185.077 20.0817 185.019 20.63 184.902 21.12C184.786 21.5867 184.727 22.1583 184.727 22.835C184.727 23.325 184.762 23.78 184.832 24.2C184.926 24.5967 185.077 24.795 185.287 24.795C185.544 24.795 185.871 24.4683 186.267 23.815C186.361 23.6283 186.501 23.535 186.687 23.535C186.897 23.535 187.002 23.64 187.002 23.85C187.002 24.1533 186.792 24.48 186.372 24.83C185.952 25.1567 185.532 25.32 185.112 25.32C184.552 25.32 184.156 25.0867 183.922 24.62C183.526 23.85 183.327 23.1617 183.327 22.555C183.327 21.925 183.316 21.4933 183.292 21.26C183.176 21.54 182.954 21.9833 182.627 22.59C182.301 23.1733 181.916 23.7917 181.472 24.445C181.029 25.075 180.562 25.6117 180.072 26.055C179.582 26.4983 179.127 26.72 178.707 26.72ZM189.722 32.6C189.488 32.6 189.243 32.4483 188.987 32.145C188.753 31.865 188.532 31.4683 188.322 30.955C187.972 30.115 187.727 29.2283 187.587 28.295C187.447 27.385 187.377 26.4633 187.377 25.53C187.377 24.5033 187.447 23.5 187.587 22.52C187.727 21.54 187.878 20.6533 188.042 19.86C188.158 19.3 188.298 18.705 188.462 18.075C188.625 17.445 188.777 16.9433 188.917 16.57C188.777 16.5933 188.555 16.675 188.252 16.815C187.948 16.955 187.633 17.095 187.307 17.235C187.003 17.375 186.735 17.445 186.502 17.445C186.152 17.445 185.977 17.2467 185.977 16.85C185.977 16.64 186.047 16.4533 186.187 16.29C186.35 16.1267 186.548 15.9983 186.782 15.905C187.248 15.695 187.762 15.5433 188.322 15.45C188.882 15.3333 189.255 15.2167 189.442 15.1L190.352 12.79C190.445 12.5567 190.608 12.1833 190.842 11.67C191.098 11.1333 191.39 10.5617 191.717 9.955C192.067 9.34833 192.405 8.8 192.732 8.31C192.988 7.93667 193.233 7.645 193.467 7.435C193.7 7.20167 193.957 7.085 194.237 7.085C194.657 7.085 194.867 7.24833 194.867 7.575C194.867 7.76167 194.785 8.04167 194.622 8.415C194.482 8.78833 194.213 9.27833 193.817 9.885C193.373 10.585 192.918 11.285 192.452 11.985C192.008 12.6617 191.623 13.3733 191.297 14.12C191.273 14.2133 191.215 14.365 191.122 14.575C191.052 14.7617 190.993 14.8783 190.947 14.925L191.647 14.82C191.833 14.7967 192.043 14.785 192.277 14.785C192.51 14.7617 192.767 14.75 193.047 14.75C193.443 14.75 193.817 14.7733 194.167 14.82C194.54 14.8433 194.843 14.9017 195.077 14.995C195.193 15.0417 195.298 15.1 195.392 15.17C195.508 15.2167 195.567 15.2633 195.567 15.31C195.567 15.4033 195.263 15.45 194.657 15.45C194.307 15.45 193.805 15.5083 193.152 15.625C192.522 15.7417 191.798 15.9283 190.982 16.185C190.585 16.3017 190.317 16.465 190.177 16.675C190.037 16.885 189.85 17.3867 189.617 18.18C189.267 19.44 188.987 20.6533 188.777 21.82C188.567 22.9633 188.403 24.13 188.287 25.32C188.263 25.5533 188.24 25.7983 188.217 26.055C188.217 26.3117 188.217 26.5917 188.217 26.895C188.217 27.6883 188.287 28.5167 188.427 29.38C188.59 30.2433 188.823 30.99 189.127 31.62C189.197 31.76 189.267 31.8883 189.337 32.005C189.43 32.1217 189.535 32.2033 189.652 32.25C189.815 32.32 189.897 32.4017 189.897 32.495C189.897 32.565 189.838 32.6 189.722 32.6ZM195.601 32.6C195.367 32.6 195.122 32.4483 194.866 32.145C194.632 31.865 194.411 31.4683 194.201 30.955C193.851 30.115 193.606 29.2283 193.466 28.295C193.326 27.385 193.256 26.4633 193.256 25.53C193.256 24.5033 193.326 23.5 193.466 22.52C193.606 21.54 193.757 20.6533 193.921 19.86C194.037 19.3 194.177 18.705 194.341 18.075C194.504 17.445 194.656 16.9433 194.796 16.57C194.656 16.5933 194.434 16.675 194.131 16.815C193.827 16.955 193.512 17.095 193.186 17.235C192.882 17.375 192.614 17.445 192.381 17.445C192.031 17.445 191.856 17.2467 191.856 16.85C191.856 16.64 191.926 16.4533 192.066 16.29C192.229 16.1267 192.427 15.9983 192.661 15.905C193.127 15.695 193.641 15.5433 194.201 15.45C194.761 15.3333 195.134 15.2167 195.321 15.1L196.231 12.79C196.324 12.5567 196.487 12.1833 196.721 11.67C196.977 11.1333 197.269 10.5617 197.596 9.955C197.946 9.34833 198.284 8.8 198.611 8.31C198.867 7.93667 199.112 7.645 199.346 7.435C199.579 7.20167 199.836 7.085 200.116 7.085C200.536 7.085 200.746 7.24833 200.746 7.575C200.746 7.76167 200.664 8.04167 200.501 8.415C200.361 8.78833 200.092 9.27833 199.696 9.885C199.252 10.585 198.797 11.285 198.331 11.985C197.887 12.6617 197.502 13.3733 197.176 14.12C197.152 14.2133 197.094 14.365 197.001 14.575C196.931 14.7617 196.872 14.8783 196.826 14.925L197.526 14.82C197.712 14.7967 197.922 14.785 198.156 14.785C198.389 14.7617 198.646 14.75 198.926 14.75C199.322 14.75 199.696 14.7733 200.046 14.82C200.419 14.8433 200.722 14.9017 200.956 14.995C201.072 15.0417 201.177 15.1 201.271 15.17C201.387 15.2167 201.446 15.2633 201.446 15.31C201.446 15.4033 201.142 15.45 200.536 15.45C200.186 15.45 199.684 15.5083 199.031 15.625C198.401 15.7417 197.677 15.9283 196.861 16.185C196.464 16.3017 196.196 16.465 196.056 16.675C195.916 16.885 195.729 17.3867 195.496 18.18C195.146 19.44 194.866 20.6533 194.656 21.82C194.446 22.9633 194.282 24.13 194.166 25.32C194.142 25.5533 194.119 25.7983 194.096 26.055C194.096 26.3117 194.096 26.5917 194.096 26.895C194.096 27.6883 194.166 28.5167 194.306 29.38C194.469 30.2433 194.702 30.99 195.006 31.62C195.076 31.76 195.146 31.8883 195.216 32.005C195.309 32.1217 195.414 32.2033 195.531 32.25C195.694 32.32 195.776 32.4017 195.776 32.495C195.776 32.565 195.717 32.6 195.601 32.6ZM201.549 27.455C200.709 27.455 199.974 26.965 199.344 25.985C198.738 24.9817 198.434 23.4067 198.434 21.26C198.434 19.86 198.609 18.74 198.959 17.9C199.309 17.0367 199.741 16.4067 200.254 16.01C200.768 15.6133 201.258 15.415 201.724 15.415C202.191 15.415 202.588 15.5783 202.914 15.905C203.241 16.2083 203.404 16.6517 203.404 17.235C203.404 17.795 203.241 18.39 202.914 19.02C202.588 19.6267 202.191 20.1867 201.724 20.7C201.281 21.19 200.838 21.5167 200.394 21.68C200.301 21.7267 200.184 21.75 200.044 21.75C199.951 21.75 199.904 21.715 199.904 21.645C199.904 21.4583 200.091 21.2483 200.464 21.015C200.931 20.6883 201.374 20.1983 201.794 19.545C202.214 18.8683 202.424 18.2733 202.424 17.76C202.424 17.4567 202.354 17.2233 202.214 17.06C202.074 16.8733 201.911 16.78 201.724 16.78C201.374 16.78 200.989 17.06 200.569 17.62C200.173 18.1567 199.881 19.09 199.694 20.42C199.648 20.7933 199.601 21.155 199.554 21.505C199.531 21.8317 199.519 22.1583 199.519 22.485C199.519 23.7917 199.718 24.8183 200.114 25.565C200.511 26.2883 201.036 26.65 201.689 26.65C202.249 26.65 202.879 26.3233 203.579 25.67C204.279 24.9933 204.968 23.9433 205.644 22.52C205.808 22.1467 205.994 21.96 206.204 21.96C206.344 21.96 206.414 22.0533 206.414 22.24C206.414 22.4033 206.368 22.5783 206.274 22.765C205.668 24.2583 204.933 25.4133 204.069 26.23C203.206 27.0467 202.366 27.455 201.549 27.455ZM210.028 28.75C209.281 28.75 208.71 28.4 208.313 27.7C207.916 27.0233 207.718 26.2767 207.718 25.46C207.718 24.69 207.846 23.885 208.103 23.045C208.36 22.205 208.675 21.3767 209.048 20.56C209.445 19.7433 209.853 18.9967 210.273 18.32C209.853 18.4833 209.456 18.565 209.083 18.565C208.896 18.565 208.733 18.5417 208.593 18.495C208.453 18.4483 208.336 18.4133 208.243 18.39C208.126 18.67 207.916 19.1367 207.613 19.79C207.333 20.4433 207.03 21.1317 206.703 21.855C206.4 22.555 206.131 23.15 205.898 23.64C205.525 24.4333 205.198 24.83 204.918 24.83C204.778 24.83 204.708 24.7367 204.708 24.55C204.708 24.41 204.766 24.2233 204.883 23.99C205.42 22.9867 205.921 21.995 206.388 21.015C206.878 20.035 207.321 19.09 207.718 18.18C207.671 18.0633 207.625 17.9117 207.578 17.725C207.531 17.515 207.508 17.2933 207.508 17.06C207.508 16.8033 207.531 16.535 207.578 16.255C207.648 15.9517 207.741 15.66 207.858 15.38C207.928 15.2167 208.056 14.9833 208.243 14.68C208.43 14.3533 208.64 14.0617 208.873 13.805C209.106 13.525 209.328 13.385 209.538 13.385C209.935 13.385 210.133 13.595 210.133 14.015C210.133 14.4117 210.005 14.8667 209.748 15.38C209.515 15.8933 209.27 16.3717 209.013 16.815C208.756 17.235 208.628 17.55 208.628 17.76C208.628 17.9467 208.721 18.04 208.908 18.04C209.165 18.04 209.48 17.9117 209.853 17.655C210.25 17.375 210.565 17.1183 210.798 16.885C210.915 16.7683 211.101 16.5933 211.358 16.36C211.615 16.1033 211.86 15.975 212.093 15.975C212.326 15.975 212.478 16.045 212.548 16.185C212.641 16.325 212.688 16.4883 212.688 16.675C212.688 16.885 212.595 17.1533 212.408 17.48C212.221 17.7833 212 18.0867 211.743 18.39C211.51 18.6933 211.311 18.95 211.148 19.16C210.821 19.65 210.448 20.2683 210.028 21.015C209.608 21.7617 209.246 22.5667 208.943 23.43C208.64 24.27 208.488 25.075 208.488 25.845C208.488 26.3583 208.616 26.895 208.873 27.455C209.13 28.015 209.48 28.295 209.923 28.295C210.32 28.295 210.74 28.085 211.183 27.665C211.65 27.245 212.081 26.7433 212.478 26.16C212.898 25.5767 213.26 25.0167 213.563 24.48C213.89 23.9433 214.111 23.57 214.228 23.36C214.275 23.2433 214.356 23.1033 214.473 22.94C214.59 22.7533 214.73 22.66 214.893 22.66C215.033 22.66 215.103 22.73 215.103 22.87C215.103 22.9867 215.068 23.1267 214.998 23.29C214.951 23.43 214.905 23.5583 214.858 23.675C214.648 24.165 214.391 24.6783 214.088 25.215C213.785 25.7517 213.575 26.1133 213.458 26.3C213.131 26.8367 212.641 27.3733 211.988 27.91C211.358 28.47 210.705 28.75 210.028 28.75ZM217.442 28.505C217.139 28.505 216.917 28.4 216.777 28.19C216.66 28.0033 216.602 27.8167 216.602 27.63C216.602 27.2567 216.765 26.8717 217.092 26.475C217.209 26.335 217.372 26.1483 217.582 25.915C217.792 25.6583 217.944 25.46 218.037 25.32C217.734 24.9 217.325 24.515 216.812 24.165C216.299 23.815 215.797 23.3717 215.307 22.835C214.864 22.345 214.49 21.75 214.187 21.05C213.884 20.3267 213.732 19.6383 213.732 18.985C213.732 18.215 213.907 17.48 214.257 16.78C214.607 16.08 215.039 15.4733 215.552 14.96C216.112 14.4 216.73 13.9567 217.407 13.63C218.084 13.28 218.784 13.105 219.507 13.105C219.997 13.105 220.475 13.2217 220.942 13.455C221.409 13.6883 221.642 14.0733 221.642 14.61C221.642 15.24 221.502 15.555 221.222 15.555C221.105 15.555 221.024 15.4383 220.977 15.205C220.954 15.0883 220.942 14.9717 220.942 14.855C220.942 14.715 220.942 14.6217 220.942 14.575C220.942 14.3417 220.837 14.1433 220.627 13.98C220.417 13.7933 220.184 13.7 219.927 13.7C219.39 13.7 218.795 13.91 218.142 14.33C217.489 14.75 216.94 15.24 216.497 15.8C216.054 16.3833 215.692 17.0483 215.412 17.795C215.132 18.5183 214.992 19.2183 214.992 19.895C214.992 20.735 215.179 21.4583 215.552 22.065C215.925 22.6717 216.369 23.2083 216.882 23.675C217.419 24.1417 217.897 24.5967 218.317 25.04C218.527 24.7833 218.749 24.5383 218.982 24.305C219.239 24.0717 219.472 23.885 219.682 23.745C219.869 23.6283 219.997 23.57 220.067 23.57C220.137 23.57 220.172 23.605 220.172 23.675C220.172 23.7917 220.067 23.9317 219.857 24.095C219.81 24.1417 219.67 24.2817 219.437 24.515C219.227 24.725 218.97 24.9933 218.667 25.32C218.854 25.53 219.005 25.7517 219.122 25.985C219.239 26.2183 219.297 26.475 219.297 26.755C219.297 27.1283 219.087 27.5133 218.667 27.91C218.247 28.3067 217.839 28.505 217.442 28.505ZM217.827 27.56C217.99 27.56 218.142 27.4083 218.282 27.105C218.445 26.825 218.527 26.545 218.527 26.265C218.527 26.125 218.504 25.9967 218.457 25.88C218.41 25.7633 218.375 25.6933 218.352 25.67C218.165 25.9033 217.99 26.16 217.827 26.44C217.687 26.6967 217.617 26.93 217.617 27.14C217.617 27.42 217.687 27.56 217.827 27.56Z" fill="black"/>
</svg>
