<svg width="112" height="35" viewBox="0 0 112 35" fill="none" xmlns="http://www.w3.org/2000/svg">
<path d="M0.880682 12V0.363636H5.6875C6.55871 0.363636 7.31061 0.534091 7.94318 0.875C8.57955 1.21212 9.07008 1.68371 9.41477 2.28977C9.75947 2.89205 9.93182 3.5928 9.93182 4.39205C9.93182 5.19508 9.75568 5.89773 9.40341 6.5C9.05492 7.09848 8.55682 7.5625 7.90909 7.89205C7.26136 8.22159 6.49242 8.38636 5.60227 8.38636H2.63636V6.17045H5.07955C5.50379 6.17045 5.85795 6.09659 6.14205 5.94886C6.42992 5.80114 6.64773 5.5947 6.79545 5.32955C6.94318 5.06061 7.01705 4.74811 7.01705 4.39205C7.01705 4.0322 6.94318 3.72159 6.79545 3.46023C6.64773 3.19508 6.42992 2.99053 6.14205 2.84659C5.85417 2.70265 5.5 2.63068 5.07955 2.63068H3.69318V12H0.880682ZM14.0966 0.363636V12H11.3182V0.363636H14.0966ZM18.3253 12.1477C17.7685 12.1477 17.2741 12.0549 16.8423 11.8693C16.4143 11.6799 16.0753 11.3958 15.8253 11.017C15.5791 10.6345 15.456 10.1553 15.456 9.57955C15.456 9.0947 15.5412 8.68561 15.7116 8.35227C15.8821 8.01894 16.117 7.74811 16.4162 7.53977C16.7154 7.33144 17.0601 7.17424 17.4503 7.06818C17.8404 6.95833 18.2571 6.88447 18.7003 6.84659C19.1965 6.80114 19.5961 6.75379 19.8991 6.70455C20.2022 6.65152 20.4219 6.57765 20.5582 6.48295C20.6984 6.38447 20.7685 6.24621 20.7685 6.06818V6.03977C20.7685 5.74811 20.6681 5.52273 20.4673 5.36364C20.2666 5.20455 19.9957 5.125 19.6548 5.125C19.2874 5.125 18.992 5.20455 18.7685 5.36364C18.545 5.52273 18.4029 5.74242 18.3423 6.02273L15.7798 5.93182C15.8556 5.40152 16.0507 4.92803 16.3651 4.51136C16.6832 4.09091 17.1188 3.76136 17.6719 3.52273C18.2287 3.2803 18.8973 3.15909 19.6776 3.15909C20.2344 3.15909 20.7476 3.22538 21.2173 3.35795C21.687 3.48674 22.0961 3.67614 22.4446 3.92614C22.7931 4.17235 23.062 4.47538 23.2514 4.83523C23.4446 5.19508 23.5412 5.60606 23.5412 6.06818V12H20.9276V10.7841H20.8594C20.7041 11.0795 20.5052 11.3295 20.2628 11.5341C20.0241 11.7386 19.742 11.892 19.4162 11.9943C19.0942 12.0966 18.7306 12.1477 18.3253 12.1477ZM19.1832 10.3295C19.4825 10.3295 19.7514 10.2689 19.9901 10.1477C20.2325 10.0265 20.4257 9.85985 20.5696 9.64773C20.7135 9.43182 20.7855 9.18182 20.7855 8.89773V8.06818C20.706 8.10985 20.6094 8.14773 20.4957 8.18182C20.3859 8.21591 20.2647 8.24811 20.1321 8.27841C19.9995 8.30871 19.8632 8.33523 19.723 8.35795C19.5829 8.38068 19.4484 8.40152 19.3196 8.42045C19.0582 8.46212 18.8348 8.52652 18.6491 8.61364C18.4673 8.70076 18.3272 8.81439 18.2287 8.95455C18.134 9.09091 18.0866 9.25379 18.0866 9.44318C18.0866 9.73106 18.1889 9.95076 18.3935 10.1023C18.6018 10.2538 18.8651 10.3295 19.1832 10.3295ZM28.0185 7.02273V12H25.2401V3.27273H27.8821V4.875H27.9787C28.1719 4.34091 28.5014 3.92235 28.9673 3.61932C29.4332 3.3125 29.9882 3.15909 30.6321 3.15909C31.2457 3.15909 31.7779 3.29735 32.2287 3.57386C32.6832 3.84659 33.0355 4.22917 33.2855 4.72159C33.5393 5.21023 33.6643 5.7822 33.6605 6.4375V12H30.8821V6.98295C30.8859 6.49811 30.7628 6.11932 30.5128 5.84659C30.2666 5.57386 29.9238 5.4375 29.4844 5.4375C29.1927 5.4375 28.9351 5.50189 28.7116 5.63068C28.492 5.75568 28.3215 5.93561 28.2003 6.17045C28.0829 6.4053 28.0223 6.68939 28.0185 7.02273ZM39.4602 12.1648C38.5473 12.1648 37.7595 11.9848 37.0966 11.625C36.4375 11.2614 35.9299 10.7443 35.5739 10.0739C35.2216 9.39962 35.0455 8.59848 35.0455 7.67045C35.0455 6.76894 35.2235 5.98106 35.5795 5.30682C35.9356 4.62879 36.4375 4.10227 37.0852 3.72727C37.733 3.34848 38.4962 3.15909 39.375 3.15909C39.9962 3.15909 40.5644 3.25568 41.0795 3.44886C41.5947 3.64205 42.0398 3.92803 42.4148 4.30682C42.7898 4.68561 43.0814 5.15341 43.2898 5.71023C43.4981 6.26326 43.6023 6.89773 43.6023 7.61364V8.30682H36.017V6.69318H41.017C41.0133 6.39773 40.9432 6.13447 40.8068 5.90341C40.6705 5.67235 40.483 5.49242 40.2443 5.36364C40.0095 5.23106 39.7386 5.16477 39.4318 5.16477C39.1212 5.16477 38.8428 5.23485 38.5966 5.375C38.3504 5.51136 38.1553 5.69886 38.0114 5.9375C37.8674 6.17235 37.7917 6.43939 37.7841 6.73864V8.38068C37.7841 8.73674 37.8542 9.04924 37.9943 9.31818C38.1345 9.58333 38.3333 9.78977 38.5909 9.9375C38.8485 10.0852 39.1553 10.1591 39.5114 10.1591C39.7576 10.1591 39.9811 10.125 40.1818 10.0568C40.3826 9.98864 40.5549 9.88826 40.6989 9.75568C40.8428 9.62311 40.9508 9.46023 41.0227 9.26705L43.5739 9.34091C43.4678 9.91288 43.2348 10.411 42.875 10.8352C42.5189 11.2557 42.0511 11.5833 41.4716 11.8182C40.892 12.0492 40.2216 12.1648 39.4602 12.1648ZM49.9474 3.27273V5.31818H44.4418V3.27273H49.9474ZM45.5952 1.18182H48.3736V9.25568C48.3736 9.42614 48.4001 9.56439 48.4531 9.67045C48.5099 9.77273 48.5914 9.84659 48.6974 9.89205C48.8035 9.93371 48.9304 9.95455 49.0781 9.95455C49.1842 9.95455 49.2959 9.94508 49.4134 9.92614C49.5346 9.90341 49.6255 9.88447 49.6861 9.86932L50.1065 11.875C49.974 11.9129 49.7865 11.9602 49.544 12.017C49.3054 12.0739 49.0194 12.1098 48.6861 12.125C48.0346 12.1553 47.4759 12.0795 47.0099 11.8977C46.5478 11.7121 46.1937 11.4242 45.9474 11.0341C45.705 10.6439 45.5876 10.1534 45.5952 9.5625V1.18182ZM53.8253 12.1477C53.2685 12.1477 52.7741 12.0549 52.3423 11.8693C51.9143 11.6799 51.5753 11.3958 51.3253 11.017C51.0791 10.6345 50.956 10.1553 50.956 9.57955C50.956 9.0947 51.0412 8.68561 51.2116 8.35227C51.3821 8.01894 51.617 7.74811 51.9162 7.53977C52.2154 7.33144 52.5601 7.17424 52.9503 7.06818C53.3404 6.95833 53.7571 6.88447 54.2003 6.84659C54.6965 6.80114 55.0961 6.75379 55.3991 6.70455C55.7022 6.65152 55.9219 6.57765 56.0582 6.48295C56.1984 6.38447 56.2685 6.24621 56.2685 6.06818V6.03977C56.2685 5.74811 56.1681 5.52273 55.9673 5.36364C55.7666 5.20455 55.4957 5.125 55.1548 5.125C54.7874 5.125 54.492 5.20455 54.2685 5.36364C54.045 5.52273 53.9029 5.74242 53.8423 6.02273L51.2798 5.93182C51.3556 5.40152 51.5507 4.92803 51.8651 4.51136C52.1832 4.09091 52.6188 3.76136 53.1719 3.52273C53.7287 3.2803 54.3973 3.15909 55.1776 3.15909C55.7344 3.15909 56.2476 3.22538 56.7173 3.35795C57.187 3.48674 57.5961 3.67614 57.9446 3.92614C58.2931 4.17235 58.562 4.47538 58.7514 4.83523C58.9446 5.19508 59.0412 5.60606 59.0412 6.06818V12H56.4276V10.7841H56.3594C56.2041 11.0795 56.0052 11.3295 55.7628 11.5341C55.5241 11.7386 55.242 11.892 54.9162 11.9943C54.5942 12.0966 54.2306 12.1477 53.8253 12.1477ZM54.6832 10.3295C54.9825 10.3295 55.2514 10.2689 55.4901 10.1477C55.7325 10.0265 55.9257 9.85985 56.0696 9.64773C56.2135 9.43182 56.2855 9.18182 56.2855 8.89773V8.06818C56.206 8.10985 56.1094 8.14773 55.9957 8.18182C55.8859 8.21591 55.7647 8.24811 55.6321 8.27841C55.4995 8.30871 55.3632 8.33523 55.223 8.35795C55.0829 8.38068 54.9484 8.40152 54.8196 8.42045C54.5582 8.46212 54.3348 8.52652 54.1491 8.61364C53.9673 8.70076 53.8272 8.81439 53.7287 8.95455C53.634 9.09091 53.5866 9.25379 53.5866 9.44318C53.5866 9.73106 53.6889 9.95076 53.8935 10.1023C54.1018 10.2538 54.3651 10.3295 54.6832 10.3295ZM64.1776 12V0.363636H69.0298C69.901 0.363636 70.6302 0.486742 71.2173 0.732954C71.8082 0.979166 72.2514 1.32386 72.5469 1.76705C72.8461 2.21023 72.9957 2.72348 72.9957 3.30682C72.9957 3.75 72.9029 4.14583 72.7173 4.49432C72.5317 4.83902 72.276 5.125 71.9503 5.35227C71.6245 5.57955 71.2476 5.73864 70.8196 5.82955V5.94318C71.2893 5.96591 71.723 6.0928 72.1207 6.32386C72.5223 6.55492 72.8442 6.87689 73.0866 7.28977C73.3291 7.69886 73.4503 8.18371 73.4503 8.74432C73.4503 9.36932 73.2912 9.92803 72.973 10.4205C72.6548 10.9091 72.1946 11.2955 71.5923 11.5795C70.9901 11.8598 70.259 12 69.3991 12H64.1776ZM66.9901 9.73295H68.7287C69.3385 9.73295 69.7874 9.61742 70.0753 9.38636C70.367 9.1553 70.5128 8.83333 70.5128 8.42045C70.5128 8.12121 70.4427 7.86364 70.3026 7.64773C70.1624 7.42803 69.9635 7.25947 69.706 7.14205C69.4484 7.02083 69.1397 6.96023 68.7798 6.96023H66.9901V9.73295ZM66.9901 5.14773H68.5469C68.8537 5.14773 69.1264 5.09659 69.3651 4.99432C69.6037 4.89205 69.7893 4.74432 69.9219 4.55114C70.0582 4.35795 70.1264 4.125 70.1264 3.85227C70.1264 3.46212 69.9882 3.1553 69.7116 2.93182C69.4351 2.70833 69.062 2.59659 68.5923 2.59659H66.9901V5.14773ZM78.8821 12.1648C77.9692 12.1648 77.1813 11.9848 76.5185 11.625C75.8594 11.2614 75.3518 10.7443 74.9957 10.0739C74.6435 9.39962 74.4673 8.59848 74.4673 7.67045C74.4673 6.76894 74.6454 5.98106 75.0014 5.30682C75.3575 4.62879 75.8594 4.10227 76.5071 3.72727C77.1548 3.34848 77.9181 3.15909 78.7969 3.15909C79.4181 3.15909 79.9863 3.25568 80.5014 3.44886C81.0166 3.64205 81.4616 3.92803 81.8366 4.30682C82.2116 4.68561 82.5033 5.15341 82.7116 5.71023C82.92 6.26326 83.0241 6.89773 83.0241 7.61364V8.30682H75.4389V6.69318H80.4389C80.4351 6.39773 80.3651 6.13447 80.2287 5.90341C80.0923 5.67235 79.9048 5.49242 79.6662 5.36364C79.4313 5.23106 79.1605 5.16477 78.8537 5.16477C78.5431 5.16477 78.2647 5.23485 78.0185 5.375C77.7723 5.51136 77.5772 5.69886 77.4332 5.9375C77.2893 6.17235 77.2135 6.43939 77.206 6.73864V8.38068C77.206 8.73674 77.276 9.04924 77.4162 9.31818C77.5563 9.58333 77.7552 9.78977 78.0128 9.9375C78.2704 10.0852 78.5772 10.1591 78.9332 10.1591C79.1795 10.1591 79.4029 10.125 79.6037 10.0568C79.8045 9.98864 79.9768 9.88826 80.1207 9.75568C80.2647 9.62311 80.3726 9.46023 80.4446 9.26705L82.9957 9.34091C82.8897 9.91288 82.6567 10.411 82.2969 10.8352C81.9408 11.2557 81.473 11.5833 80.8935 11.8182C80.3139 12.0492 79.6435 12.1648 78.8821 12.1648ZM86.9034 12.1477C86.3466 12.1477 85.8523 12.0549 85.4205 11.8693C84.9924 11.6799 84.6534 11.3958 84.4034 11.017C84.1572 10.6345 84.0341 10.1553 84.0341 9.57955C84.0341 9.0947 84.1193 8.68561 84.2898 8.35227C84.4602 8.01894 84.6951 7.74811 84.9943 7.53977C85.2936 7.33144 85.6383 7.17424 86.0284 7.06818C86.4186 6.95833 86.8352 6.88447 87.2784 6.84659C87.7746 6.80114 88.1742 6.75379 88.4773 6.70455C88.7803 6.65152 89 6.57765 89.1364 6.48295C89.2765 6.38447 89.3466 6.24621 89.3466 6.06818V6.03977C89.3466 5.74811 89.2462 5.52273 89.0455 5.36364C88.8447 5.20455 88.5739 5.125 88.233 5.125C87.8655 5.125 87.5701 5.20455 87.3466 5.36364C87.1231 5.52273 86.9811 5.74242 86.9205 6.02273L84.358 5.93182C84.4337 5.40152 84.6288 4.92803 84.9432 4.51136C85.2614 4.09091 85.697 3.76136 86.25 3.52273C86.8068 3.2803 87.4754 3.15909 88.2557 3.15909C88.8125 3.15909 89.3258 3.22538 89.7955 3.35795C90.2652 3.48674 90.6742 3.67614 91.0227 3.92614C91.3712 4.17235 91.6402 4.47538 91.8295 4.83523C92.0227 5.19508 92.1193 5.60606 92.1193 6.06818V12H89.5057V10.7841H89.4375C89.2822 11.0795 89.0833 11.3295 88.8409 11.5341C88.6023 11.7386 88.3201 11.892 87.9943 11.9943C87.6723 12.0966 87.3087 12.1477 86.9034 12.1477ZM87.7614 10.3295C88.0606 10.3295 88.3295 10.2689 88.5682 10.1477C88.8106 10.0265 89.0038 9.85985 89.1477 9.64773C89.2917 9.43182 89.3636 9.18182 89.3636 8.89773V8.06818C89.2841 8.10985 89.1875 8.14773 89.0739 8.18182C88.964 8.21591 88.8428 8.24811 88.7102 8.27841C88.5777 8.30871 88.4413 8.33523 88.3011 8.35795C88.161 8.38068 88.0265 8.40152 87.8977 8.42045C87.6364 8.46212 87.4129 8.52652 87.2273 8.61364C87.0455 8.70076 86.9053 8.81439 86.8068 8.95455C86.7121 9.09091 86.6648 9.25379 86.6648 9.44318C86.6648 9.73106 86.767 9.95076 86.9716 10.1023C87.1799 10.2538 87.4432 10.3295 87.7614 10.3295ZM97.892 12.1648C96.9716 12.1648 96.1818 11.9754 95.5227 11.5966C94.8674 11.2178 94.3636 10.6913 94.0114 10.017C93.6591 9.33902 93.483 8.55492 93.483 7.66477C93.483 6.77083 93.6591 5.98674 94.0114 5.3125C94.3674 4.63447 94.8731 4.10606 95.5284 3.72727C96.1875 3.34848 96.9735 3.15909 97.8864 3.15909C98.6932 3.15909 99.3958 3.30492 99.9943 3.59659C100.597 3.88826 101.066 4.30114 101.403 4.83523C101.744 5.36553 101.924 5.98864 101.943 6.70455H99.3466C99.2936 6.25758 99.142 5.9072 98.892 5.65341C98.6458 5.39962 98.3239 5.27273 97.9261 5.27273C97.6042 5.27273 97.322 5.36364 97.0795 5.54545C96.8371 5.72348 96.6477 5.98864 96.5114 6.34091C96.3788 6.68939 96.3125 7.12121 96.3125 7.63636C96.3125 8.15152 96.3788 8.58712 96.5114 8.94318C96.6477 9.29545 96.8371 9.5625 97.0795 9.74432C97.322 9.92235 97.6042 10.0114 97.9261 10.0114C98.1837 10.0114 98.411 9.95644 98.608 9.84659C98.8087 9.73674 98.9735 9.57576 99.1023 9.36364C99.2311 9.14773 99.3125 8.88636 99.3466 8.57955H101.943C101.917 9.29924 101.737 9.92803 101.403 10.4659C101.074 11.0038 100.61 11.4223 100.011 11.7216C99.4167 12.017 98.7102 12.1648 97.892 12.1648ZM106.143 7.02273V12H103.365V0.363636H106.053V4.875H106.149C106.346 4.33712 106.668 3.91667 107.115 3.61364C107.566 3.31061 108.117 3.15909 108.768 3.15909C109.382 3.15909 109.916 3.29545 110.371 3.56818C110.825 3.83712 111.178 4.2178 111.428 4.71023C111.681 5.20265 111.806 5.77841 111.803 6.4375V12H109.024V6.98295C109.028 6.49811 108.907 6.11932 108.661 5.84659C108.414 5.57386 108.068 5.4375 107.621 5.4375C107.329 5.4375 107.071 5.50189 106.848 5.63068C106.628 5.75568 106.456 5.93561 106.331 6.17045C106.21 6.4053 106.147 6.68939 106.143 7.02273ZM7.17045 22.8523C7.13258 22.4356 6.96402 22.1117 6.66477 21.8807C6.36932 21.6458 5.94697 21.5284 5.39773 21.5284C5.03409 21.5284 4.73106 21.5758 4.48864 21.6705C4.24621 21.7652 4.06439 21.8958 3.94318 22.0625C3.82197 22.2254 3.75947 22.4129 3.75568 22.625C3.74811 22.7992 3.7822 22.9527 3.85795 23.0852C3.9375 23.2178 4.05114 23.3352 4.19886 23.4375C4.35038 23.536 4.5322 23.6231 4.74432 23.6989C4.95644 23.7746 5.19508 23.8409 5.46023 23.8977L6.46023 24.125C7.03599 24.25 7.54356 24.4167 7.98295 24.625C8.42614 24.8333 8.79735 25.0814 9.09659 25.3693C9.39962 25.6572 9.62879 25.9886 9.78409 26.3636C9.93939 26.7386 10.0189 27.1591 10.0227 27.625C10.0189 28.3598 9.83333 28.9905 9.46591 29.517C9.09848 30.0436 8.57008 30.447 7.88068 30.7273C7.19508 31.0076 6.36742 31.1477 5.39773 31.1477C4.42424 31.1477 3.57576 31.0019 2.85227 30.7102C2.12879 30.4186 1.56629 29.9754 1.16477 29.3807C0.763258 28.786 0.556818 28.0341 0.545455 27.125H3.23864C3.26136 27.5 3.36174 27.8125 3.53977 28.0625C3.7178 28.3125 3.96212 28.5019 4.27273 28.6307C4.58712 28.7595 4.95076 28.8239 5.36364 28.8239C5.74242 28.8239 6.06439 28.7727 6.32955 28.6705C6.59849 28.5682 6.80492 28.4261 6.94886 28.2443C7.0928 28.0625 7.16667 27.8542 7.17045 27.6193C7.16667 27.3996 7.09849 27.2121 6.96591 27.0568C6.83333 26.8977 6.62879 26.7614 6.35227 26.6477C6.07955 26.5303 5.73106 26.4223 5.30682 26.3239L4.09091 26.0398C3.08333 25.8087 2.28977 25.4356 1.71023 24.9205C1.13068 24.4015 0.842803 23.7008 0.846591 22.8182C0.842803 22.0985 1.03598 21.4678 1.42614 20.9261C1.81629 20.3845 2.35606 19.9621 3.04545 19.6591C3.73485 19.3561 4.52083 19.2045 5.40341 19.2045C6.30492 19.2045 7.08712 19.358 7.75 19.6648C8.41667 19.9678 8.93371 20.3939 9.30114 20.9432C9.66856 21.4924 9.85606 22.1288 9.86364 22.8523H7.17045ZM11.4432 34.2727V22.2727H14.1932V23.767H14.2784C14.392 23.5019 14.553 23.2462 14.7614 23C14.9735 22.7538 15.2424 22.553 15.5682 22.3977C15.8977 22.2386 16.2917 22.1591 16.75 22.1591C17.3561 22.1591 17.9223 22.3182 18.4489 22.6364C18.9792 22.9545 19.4072 23.4451 19.733 24.108C20.0587 24.7708 20.2216 25.6155 20.2216 26.642C20.2216 27.6307 20.0644 28.4583 19.75 29.125C19.4394 29.7917 19.0189 30.2917 18.4886 30.625C17.9621 30.9583 17.3769 31.125 16.733 31.125C16.2936 31.125 15.9129 31.053 15.5909 30.9091C15.2689 30.7652 14.9981 30.5758 14.7784 30.3409C14.5625 30.1061 14.3958 29.8542 14.2784 29.5852H14.2216V34.2727H11.4432ZM14.1648 26.6364C14.1648 27.1061 14.2273 27.5152 14.3523 27.8636C14.4811 28.2121 14.6648 28.483 14.9034 28.6761C15.1458 28.8655 15.4356 28.9602 15.7727 28.9602C16.1136 28.9602 16.4034 28.8655 16.642 28.6761C16.8807 28.483 17.0606 28.2121 17.1818 27.8636C17.3068 27.5152 17.3693 27.1061 17.3693 26.6364C17.3693 26.1667 17.3068 25.7595 17.1818 25.4148C17.0606 25.0701 16.8807 24.803 16.642 24.6136C16.4072 24.4242 16.1174 24.3295 15.7727 24.3295C15.4318 24.3295 15.142 24.4223 14.9034 24.608C14.6648 24.7936 14.4811 25.0587 14.3523 25.4034C14.2273 25.7481 14.1648 26.1591 14.1648 26.6364ZM25.7514 31.1648C24.8348 31.1648 24.0469 30.9773 23.3878 30.6023C22.7325 30.2235 22.2268 29.697 21.8707 29.0227C21.5185 28.3447 21.3423 27.5587 21.3423 26.6648C21.3423 25.767 21.5185 24.9811 21.8707 24.3068C22.2268 23.6288 22.7325 23.1023 23.3878 22.7273C24.0469 22.3485 24.8348 22.1591 25.7514 22.1591C26.6681 22.1591 27.4541 22.3485 28.1094 22.7273C28.7685 23.1023 29.2741 23.6288 29.6264 24.3068C29.9825 24.9811 30.1605 25.767 30.1605 26.6648C30.1605 27.5587 29.9825 28.3447 29.6264 29.0227C29.2741 29.697 28.7685 30.2235 28.1094 30.6023C27.4541 30.9773 26.6681 31.1648 25.7514 31.1648ZM25.7685 29.0682C26.1018 29.0682 26.384 28.9659 26.6151 28.7614C26.8461 28.5568 27.0223 28.2727 27.1435 27.9091C27.2685 27.5455 27.331 27.125 27.331 26.6477C27.331 26.1629 27.2685 25.7386 27.1435 25.375C27.0223 25.0114 26.8461 24.7273 26.6151 24.5227C26.384 24.3182 26.1018 24.2159 25.7685 24.2159C25.4238 24.2159 25.1321 24.3182 24.8935 24.5227C24.6586 24.7273 24.4787 25.0114 24.3537 25.375C24.2325 25.7386 24.1719 26.1629 24.1719 26.6477C24.1719 27.125 24.2325 27.5455 24.3537 27.9091C24.4787 28.2727 24.6586 28.5568 24.8935 28.7614C25.1321 28.9659 25.4238 29.0682 25.7685 29.0682ZM31.5838 31V22.2727H34.2827V23.8636H34.3736C34.5327 23.2879 34.7921 22.8598 35.152 22.5795C35.5118 22.2955 35.9304 22.1534 36.4077 22.1534C36.5365 22.1534 36.669 22.1629 36.8054 22.1818C36.9418 22.197 37.0687 22.2216 37.1861 22.2557V24.6705C37.0535 24.625 36.8793 24.589 36.6634 24.5625C36.4512 24.536 36.2618 24.5227 36.0952 24.5227C35.7656 24.5227 35.4683 24.5966 35.2031 24.7443C34.9418 24.8883 34.7353 25.0909 34.5838 25.3523C34.4361 25.6098 34.3622 25.9129 34.3622 26.2614V31H31.5838ZM43.6506 22.2727V24.3182H38.1449V22.2727H43.6506ZM39.2983 20.1818H42.0767V28.2557C42.0767 28.4261 42.1032 28.5644 42.1562 28.6705C42.2131 28.7727 42.2945 28.8466 42.4006 28.892C42.5066 28.9337 42.6335 28.9545 42.7812 28.9545C42.8873 28.9545 42.9991 28.9451 43.1165 28.9261C43.2377 28.9034 43.3286 28.8845 43.3892 28.8693L43.8097 30.875C43.6771 30.9129 43.4896 30.9602 43.2472 31.017C43.0085 31.0739 42.7225 31.1098 42.3892 31.125C41.7377 31.1553 41.179 31.0795 40.7131 30.8977C40.2509 30.7121 39.8968 30.4242 39.6506 30.0341C39.4081 29.6439 39.2907 29.1534 39.2983 28.5625V20.1818ZM52.5781 24.9375L50.027 25.0057C50.0005 24.8239 49.9285 24.6629 49.8111 24.5227C49.6937 24.3788 49.5402 24.267 49.3509 24.1875C49.1652 24.1042 48.9493 24.0625 48.7031 24.0625C48.3812 24.0625 48.1065 24.1269 47.8793 24.2557C47.6558 24.3845 47.5459 24.5587 47.5497 24.7784C47.5459 24.9489 47.6141 25.0966 47.7543 25.2216C47.8982 25.3466 48.1539 25.447 48.5213 25.5227L50.2031 25.8409C51.0743 26.0076 51.7221 26.2841 52.1463 26.6705C52.5743 27.0568 52.7902 27.5682 52.794 28.2045C52.7902 28.803 52.6122 29.3239 52.2599 29.767C51.9115 30.2102 51.4342 30.5549 50.8281 30.8011C50.2221 31.0436 49.5289 31.1648 48.7486 31.1648C47.5024 31.1648 46.5194 30.9091 45.7997 30.3977C45.0838 29.8826 44.6747 29.1932 44.5724 28.3295L47.3168 28.2614C47.3774 28.5795 47.5346 28.822 47.7884 28.9886C48.0421 29.1553 48.366 29.2386 48.7599 29.2386C49.116 29.2386 49.4058 29.1723 49.6293 29.0398C49.8527 28.9072 49.9664 28.7311 49.9702 28.5114C49.9664 28.3144 49.8793 28.1572 49.7088 28.0398C49.5384 27.9186 49.2713 27.8239 48.9077 27.7557L47.3849 27.4659C46.5099 27.3068 45.8584 27.0133 45.4304 26.5852C45.0024 26.1534 44.7902 25.6042 44.794 24.9375C44.7902 24.3542 44.9455 23.8561 45.2599 23.4432C45.5743 23.0265 46.0213 22.7083 46.6009 22.4886C47.1804 22.2689 47.8641 22.1591 48.652 22.1591C49.8338 22.1591 50.7656 22.4072 51.4474 22.9034C52.1293 23.3958 52.5062 24.0739 52.5781 24.9375Z" fill="#00B3F5"/>
</svg>
